<?xml version="1.0" standalone="no"?>
<!DOCTYPE svg PUBLIC "-//W3C//DTD SVG 20010904//EN"
 "http://www.w3.org/TR/2001/REC-SVG-20010904/DTD/svg10.dtd">
<svg version="1.0" xmlns="http://www.w3.org/2000/svg"
 width="512.000000pt" height="512.000000pt" viewBox="0 0 512.000000 512.000000"
 preserveAspectRatio="xMidYMid meet">

<g transform="translate(0.000000,512.000000) scale(0.100000,-0.100000)"
fill="#000000" stroke="none">
<path d="M2355 5099 c-777 -63 -1492 -484 -1929 -1138 l-56 -84 22 -36 c122
-205 379 -490 588 -653 121 -93 241 -171 250 -161 4 4 15 33 25 63 48 149 167
395 269 555 390 614 1007 1051 1712 1210 60 13 143 29 184 35 135 19 134 18
50 52 -321 128 -741 187 -1115 157z"/>
<path d="M3550 4725 c-775 -94 -1451 -517 -1867 -1170 -82 -127 -201 -370
-246 -500 -19 -55 -38 -107 -42 -116 -4 -12 15 -25 86 -58 202 -94 419 -162
639 -200 139 -25 370 -45 380 -34 4 4 37 53 75 108 99 146 205 274 330 400
462 462 1052 737 1718 800 37 4 67 9 67 12 0 3 -39 58 -87 122 -93 124 -322
361 -438 453 -39 30 -117 87 -174 127 l-104 71 -116 -1 c-64 -1 -163 -7 -221
-14z"/>
<path d="M4605 3769 c-301 -31 -584 -112 -873 -250 l-124 -58 82 -93 c261
-295 456 -638 569 -998 169 -540 171 -1090 5 -1639 -19 -62 -33 -115 -31 -117
2 -3 56 46 119 108 403 397 662 907 743 1470 22 153 30 422 16 563 -33 336
-108 612 -246 903 l-58 122 -61 -1 c-34 -1 -97 -5 -141 -10z"/>
<path d="M246 3642 c-179 -353 -279 -904 -236 -1305 9 -85 10 -90 61 -155 381
-486 880 -806 1469 -941 358 -82 824 -79 1160 9 133 34 120 26 120 76 0 56
-17 217 -31 304 -40 238 -116 481 -215 688 l-65 138 -152 12 c-572 46 -1066
241 -1521 600 -91 71 -324 305 -402 402 -33 41 -84 108 -112 148 l-51 74 -25
-50z"/>
<path d="M3379 3312 c-121 -86 -213 -165 -330 -281 -130 -131 -216 -234 -315
-381 l-67 -100 56 -117 c194 -410 277 -771 277 -1208 0 -436 -68 -742 -267
-1194 l-15 -34 84 7 c344 29 691 138 1025 323 l102 57 39 86 c177 381 254 788
231 1215 -20 365 -107 685 -279 1025 -110 215 -292 472 -432 607 l-43 42 -66
-47z"/>
<path d="M109 1813 c89 -293 259 -616 451 -858 309 -388 756 -695 1235 -846
206 -64 456 -108 621 -109 l101 0 46 97 c92 197 149 360 197 563 31 133 69
430 54 430 -3 0 -40 -9 -82 -19 -326 -83 -742 -96 -1097 -35 -532 92 -1028
342 -1422 718 l-121 116 17 -57z"/>
</g>
</svg>
